<svg width="60" height="37" viewBox="0 0 296 184" xmlns="http://www.w3.org/2000/svg" xmlns:xlink="http://www.w3.org/1999/xlink"><title>999 logo</title><defs><path id="a" d="M0 .937h294.064V183H0"></path><path id="c" d="M0 .937h294.064V183H0"></path></defs><g fill="none" fill-rule="evenodd"><g transform="translate(1)"><mask id="b" fill="#fff"><use xlink:href="#a"></use></mask><path d="M182.003 137.025c-17.124 21.484-40.36 36.811-69.663 45.975-4.9 0-8-.94-9.168-2.695l-14.07-15.415c-3.278-3.594-2.067-7.145 3.644-10.696 24.089-14.654 38.335-33.08 42.784-55.236-15.055-1.619-27.1-6.74-36.043-15.462-8.99-8.672-13.44-19.594-13.44-32.672 0-15.776 5.483-28.315 16.495-37.438C112.294 5.117 125.554.937 142.27.937c19.91 0 35.73 6.561 47.327 19.684 11.596 13.17 17.437 30.697 17.437 52.585 0 21.842-8.358 43.098-25.032 63.82" fill="#EF4825" mask="url(#b)"></path></g><g transform="translate(1)"><mask id="d" fill="#fff"><use xlink:href="#c"></use></mask><path d="M62.783 118.317c-11.204 14.057-26.407 24.085-45.58 30.08-3.206 0-5.234-.613-6-1.762L2 136.549c-2.145-2.351-1.353-4.675 2.383-6.998 15.762-9.588 25.083-21.644 27.994-36.141-9.85-1.06-17.732-4.41-23.583-10.116C2.912 77.619 0 70.473 0 61.916 0 51.594 3.587 43.39 10.792 37.42c6.38-5.411 15.056-8.146 25.995-8.146 13.027 0 23.378 4.293 30.965 12.88 7.588 8.616 11.41 20.085 11.41 34.406 0 14.29-5.47 28.199-16.38 41.756" fill="#FDBA29" mask="url(#d)"></path></g><path d="M278.684 118.317c-11.203 14.057-26.405 24.085-45.58 30.08-3.205 0-5.232-.613-6.028-1.762l-9.175-10.086c-2.145-2.351-1.353-4.675 2.383-6.998 15.732-9.588 25.082-21.644 27.994-36.141-9.85-1.06-17.73-4.41-23.583-10.116-5.881-5.675-8.792-12.821-8.792-21.378 0-10.322 3.586-18.526 10.79-24.495 6.382-5.411 15.026-8.146 25.967-8.146 13.055 0 23.408 4.293 30.995 12.88 7.587 8.616 11.409 20.085 11.409 34.406 0 14.29-5.47 28.199-16.38 41.756" fill="#ACB44D"></path></g></svg>