<?xml version="1.0" encoding="UTF-8"?>
<svg width="36px" height="36px" viewBox="0 0 36 34" version="1.1" xmlns="http://www.w3.org/2000/svg" xmlns:xlink="http://www.w3.org/1999/xlink">
    <!-- Generator: Sketch 49.2 (51160) - http://www.bohemiancoding.com/sketch -->
    <title>Artboard</title>
    <desc>Created with Sketch.</desc>
    <defs></defs>
    <g id="Artboard" stroke="none" stroke-width="1" fill="none" fill-rule="evenodd">
        <rect id="Rectangle" fill="#C1A086" x="0" y="0" width="36" height="36"></rect>
        <path d="M18.2723843,3.43996472 L30.9825691,16.1501495 C31.1778313,16.3454117 31.1778313,16.6619942 30.9825691,16.8572563 L29.4386319,18.4011935 C29.2433698,18.5964556 28.9267873,18.5964556 28.7315252,18.4011935 L16.0213404,5.69100868 C15.8260782,5.49574654 15.8260782,5.17916405 16.0213404,4.9839019 L17.5652775,3.43996472 C17.7605397,3.24470257 18.0771222,3.24470257 18.2723843,3.43996472 Z M18.2723843,9.80687853 L30.9825691,22.5170633 C31.1778313,22.7123255 31.1778313,23.028908 30.9825691,23.2241701 L29.4386319,24.7681073 C29.2433698,24.9633694 28.9267873,24.9633694 28.7315252,24.7681073 L16.0213404,12.0579225 C15.8260782,11.8626603 15.8260782,11.5460779 16.0213404,11.3508157 L17.5652775,9.80687853 C17.7605397,9.61161638 18.0771222,9.61161638 18.2723843,9.80687853 Z M14.3568966,6.71705271 C14.5521587,6.52179056 14.8687412,6.52179056 15.0640034,6.71705271 L16.6079406,8.26098989 C16.8032027,8.45625204 16.8032027,8.77283453 16.6079406,8.96809667 L7.26847484,18.3075624 C7.07321269,18.5028245 6.7566302,18.5028245 6.56136806,18.3075624 L5.01743087,16.7636252 C4.82216873,16.5683631 4.82216873,16.2517806 5.01743087,16.0565184 L14.3568966,6.71705271 Z M14.3568966,13.0839665 C14.5521587,12.8887044 14.8687412,12.8887044 15.0640034,13.0839665 L16.6079406,14.6279037 C16.8032027,14.8231658 16.8032027,15.1397483 16.6079406,15.3350105 L7.26847484,24.6744762 C7.07321269,24.8697384 6.7566302,24.8697384 6.56136806,24.6744762 L5.01743087,23.130539 C4.82216873,22.9352769 4.82216873,22.6186944 5.01743087,22.4234322 L14.3568966,13.0839665 Z M14.3568966,19.4508803 C14.5521587,19.2556182 14.8687412,19.2556182 15.0640034,19.4508803 L16.6079406,20.9948175 C16.8032027,21.1900797 16.8032027,21.5066621 16.6079406,21.7019243 L7.26847484,31.04139 C7.07321269,31.2366522 6.7566302,31.2366522 6.56136806,31.04139 L5.01743087,29.4974528 C4.82216873,29.3021907 4.82216873,28.9856082 5.01743087,28.7903461 L14.3568966,19.4508803 Z M18.2723843,16.1737923 L30.9825691,28.8839771 C31.1778313,29.0792393 31.1778313,29.3958218 30.9825691,29.5910839 L29.4386319,31.1350211 C29.2433698,31.3302832 28.9267873,31.3302832 28.7315252,31.1350211 L16.0213404,18.4248363 C15.8260782,18.2295742 15.8260782,17.9129917 16.0213404,17.7177295 L17.5652775,16.1737923 C17.7605397,15.9785302 18.0771222,15.9785302 18.2723843,16.1737923 Z" id="Combined-Shape" fill="#FFFFFF"></path>
    </g>
</svg>