<svg width="121" height="30" xmlns="http://www.w3.org/2000/svg" viewBox="0 0 121 30"><g fill="none" fill-rule="evenodd"><path d="M7.494.578c.84 0 1.534.259 2.08.778.545.519.816 1.16.816 1.927a3.247 3.247 0 0 1-.903 2.281c-.284.304-.62.54-1.005.709a3.127 3.127 0 0 1-1.261.254c-.864 0-1.575-.254-2.13-.761-.558-.505-.838-1.155-.838-1.942 0-.925.314-1.695.939-2.316.624-.62 1.392-.93 2.302-.93zM0 29.565L3.647 8.928h5.49L5.421 29.565H0z" fill="#996A34"/><path d="M28.196 9.998c-.446-.48-1.013-.853-1.7-1.126-.688-.273-1.513-.412-2.475-.412-1.192 0-2.246.275-3.16.822-.917.546-1.65 1.238-2.2 2.081h-.068c.046-.364.097-.795.155-1.298.055-.5.096-.886.118-1.162h-5.257c-.045.549-.12 1.162-.224 1.845a29.99 29.99 0 0 1-.292 1.674L10.722 25.91h5.5l1.647-9.195c.092-.5.234-.977.43-1.43.195-.455.449-.853.757-1.193.31-.34.664-.606 1.064-.8.4-.194.854-.29 1.358-.29.847 0 1.438.223 1.77.664.331.443.498.982.498 1.62 0 .43-.058.905-.172 1.43l-1.613 9.194h5.497l1.855-10.45c.068-.295.114-.597.138-.903.021-.31.033-.62.033-.94 0-.682-.103-1.336-.308-1.964a4.439 4.439 0 0 0-.98-1.655" fill="#C2935E"/><path d="M38.51 12.735a3.834 3.834 0 0 1 1.626-.34c.775 0 1.44.148 2 .44.56.298.996.67 1.318 1.122l3.453-2.886c-.684-.859-1.602-1.509-2.752-1.95-1.152-.442-2.391-.661-3.712-.661-1.028 0-2.007.13-2.941.39-.937.26-1.75.645-2.447 1.155a6.02 6.02 0 0 0-1.676 1.847c-.423.726-.632 1.55-.632 2.478 0 .658.104 1.229.308 1.715.204.485.511.914.924 1.287.41.374.917.703 1.523.984.602.283 1.303.54 2.103.766.797.248 1.402.498 1.81.745.411.248.617.6.617 1.05 0 .479-.223.85-.667 1.121-.444.272-1.033.407-1.76.407a5.212 5.212 0 0 1-2.207-.492 4.122 4.122 0 0 1-1.729-1.44l-3.419 3.085c.776.907 1.777 1.619 3.009 2.14 1.232.521 2.634.78 4.207.78.958 0 1.899-.12 2.823-.356.922-.238 1.744-.598 2.462-1.086a5.706 5.706 0 0 0 1.745-1.869c.444-.754.668-1.642.668-2.661 0-1.448-.464-2.55-1.386-3.307-.924-.76-2.185-1.352-3.78-1.783-.753-.202-1.313-.412-1.678-.628-.362-.215-.545-.515-.545-.9 0-.543.243-.926.735-1.153" fill="#D8B37A"/><path d="M54.598 19.689l1.235-6.653h3.53l.754-4.076h-3.632l.787-4.483h-5.348l-.788 4.483h-2.71l-.753 4.076h2.811l-1.302 7.19c-.07.316-.12.652-.154 1.003a9.288 9.288 0 0 0-.053.936c0 1.433.474 2.477 1.422 3.135.949.658 2.246.989 3.893.989a9.63 9.63 0 0 0 1.663-.155c.583-.102 1.033-.222 1.353-.355l.515-3.907c-.205.046-.44.09-.703.136a4.74 4.74 0 0 1-.806.067c-.55 0-.982-.103-1.303-.308-.32-.205-.479-.59-.479-1.158 0-.114.005-.257.017-.427.01-.169.03-.336.05-.493" fill="#BD8855"/><path d="M72.668 8.782c.873.214 1.62.548 2.252 1a4.976 4.976 0 0 1 1.493 1.7c.367.678.552 1.493.552 2.444a11.075 11.075 0 0 1-.207 2.073l-1.17 6.587c-.115.589-.2 1.19-.255 1.802a15.62 15.62 0 0 0-.087 1.494h-4.879c0-.25.013-.539.034-.868.024-.326.058-.638.104-.934h-.068c-1.26 1.473-3.002 2.209-5.223 2.209a8.18 8.18 0 0 1-1.837-.222 5.059 5.059 0 0 1-1.717-.748 3.997 3.997 0 0 1-1.254-1.391c-.321-.58-.48-1.287-.48-2.123 0-1.358.342-2.466 1.03-3.329.687-.86 1.586-1.527 2.695-2.003 1.112-.474 2.371-.803 3.78-.984a33.218 33.218 0 0 1 4.241-.272c.048-.205.07-.362.07-.477v-.304c0-.656-.234-1.14-.704-1.444-.47-.305-1.129-.458-1.975-.458-.78 0-1.563.148-2.354.441a8.64 8.64 0 0 0-2.146 1.156l-2.267-3.126c1.03-.813 2.214-1.442 3.555-1.885 1.34-.44 2.662-.66 3.967-.66 1.03 0 1.98.107 2.85.322zm-1.476 10.51l.171-.816h-.48c-.687 0-1.386.029-2.095.086a8.417 8.417 0 0 0-1.908.358c-.561.18-1.024.428-1.389.745-.369.317-.552.737-.552 1.258 0 .68.237 1.137.704 1.375.47.236.991.355 1.565.355 1.052 0 1.934-.321 2.643-.967a4.245 4.245 0 0 0 1.341-2.395z" fill="#996A34"/><path fill="#D1A971" d="M83.34 4.666l-3.886 21.431 5.295.002 4.086-21.433z"/><path d="M91.81 23.823c.861 0 1.57.248 2.128.75.553.503.833 1.144.833 1.923 0 .915-.311 1.676-.937 2.29-.623.61-1.389.917-2.296.917-.84 0-1.534-.255-2.08-.766a2.523 2.523 0 0 1-.814-1.906c0-.446.08-.859.236-1.236.161-.38.38-.72.667-1.021a2.994 2.994 0 0 1 1.004-.703 3.168 3.168 0 0 1 1.259-.248zm-2.017-2.465L93.529.873h5.454l-3.67 20.485h-5.52z" fill="#B88A54"/><path d="M119.786 13.612c.299.545.448 1.205.448 1.981 0 .88-.157 1.678-.47 2.392a5.184 5.184 0 0 1-1.311 1.818c-.56.497-1.22.88-1.982 1.15a7.416 7.416 0 0 1-2.49.405H109.261l.005-.026 1.039-5.772-3.013 5.798h-2.36l-.911-5.822h-.073l-.882 5.822H99.94l1.81-10.053h4.27l.896 5.509h.072l2.664-5.509H115.314c.579 0 1.16.078 1.743.234a4.76 4.76 0 0 1 1.579.746c.467.34.85.783 1.15 1.327zm-3.206 3.29c.11-.308.164-.63.164-.961 0-.258-.037-.5-.114-.727-.08-.23-.2-.426-.361-.591a1.802 1.802 0 0 0-.632-.4c-.255-.1-.557-.15-.904-.15h-.899l-.668 3.683-.14.776h1.085c.434 0 .815-.073 1.143-.22.328-.147.602-.34.827-.585.221-.24.388-.518.499-.825z" fill="#996A34"/></g></svg>
