<svg width="22" height="17" viewBox="0 0 22 17" xmlns="http://www.w3.org/2000/svg" xmlns:xlink="http://www.w3.org/1999/xlink"><defs><path d="M.6 6.883l10 5.006c.1.1.2.1.4.1s.3 0 .4-.1l10-5.006c.4-.2.6-.5.6-.901 0-.4-.2-.701-.6-.901L11.4.075c-.3-.1-.6-.1-.9 0L.5 5.081c-.3.2-.5.5-.5.9 0 .401.2.702.6.902zM11 2.077l7.8 3.905L11 9.886 3.2 5.982 11 2.077zm10.9 8.51c.2.5 0 1.101-.4 1.302l-10 5.005c-.2.1-.3.1-.5.1s-.3 0-.4-.1L.6 11.89c-.5-.2-.7-.801-.4-1.302.2-.5.8-.7 1.3-.4l9.6 4.805 9.6-4.805c.3-.3.9-.1 1.2.4z" id="a"/></defs><use fill="#000" fill-rule="nonzero" xlink:href="#a"/></svg>