<svg width="22" height="23" viewBox="0 0 22 23" xmlns="http://www.w3.org/2000/svg" xmlns:xlink="http://www.w3.org/1999/xlink"><defs><path d="M19.9 17.4c1.3-1.8 2.1-4 2.1-6.4 0-1.5-.3-3-.9-4.3v-.1c-1.5-3.5-4.8-6-8.8-6.5h-.1C11.8 0 11.4 0 11 0 7.4 0 4.2 1.7 2.2 4.4c0 .1-.1.1-.1.2C.8 6.4 0 8.6 0 11c0 1.5.3 3 .9 4.4v.1c1.5 3.4 4.8 6 8.7 6.5h.1c.4 0 .8.1 1.2.1 3.6 0 6.8-1.7 8.8-4.4.1-.1.2-.2.2-.3zM12.7 14H9.2l-1.7-3 1.7-3h3.5l1.7 3-1.7 3zM2 11c0-1.4.3-2.8.9-4l4 7H2.5c-.3-.9-.5-1.9-.5-3zm13-3h4.4c.3.9.5 1.9.5 3 0 1.4-.3 2.8-.9 4l-4-7zm3.5-2h-8.1l2.2-3.8c2.5.4 4.6 1.8 5.9 3.8zm-8.1-4l-4 7-2.2-3.8c1.5-1.8 3.7-3 6.2-3.2zM3.5 16h8.1l-2.2 3.8C6.9 19.4 4.8 18 3.5 16zm8.1 4l4-7 2.2 3.8c-1.5 1.8-3.7 3-6.2 3.2z" id="a"/></defs><use fill="#000" fill-rule="nonzero" xlink:href="#a"/></svg>