<svg width="16" height="22" viewBox="0 0 16 22" xmlns="http://www.w3.org/2000/svg" xmlns:xlink="http://www.w3.org/1999/xlink"><defs><path d="M4 2.146H2v8.842c0 .599.4.998 1 .998h10c.6 0 1-.4 1-.998V2.146H6V7.5a.5.5 0 0 1-.5.5h-1a.5.5 0 0 1-.5-.5V2.146zM0 0h16v10.988c0 1.698-1.3 2.996-3 2.996H3c-1.7 0-3-1.298-3-2.996V0zm10 13c.6 0 1 .4 1 1v7c0 .6-.4 1-1 1H6c-.6 0-1-.4-1-1v-7c0-.6.4-1 1-1h4zM9.5 1h1a.5.5 0 0 1 .5.5v3a.5.5 0 0 1-.5.5h-1a.5.5 0 0 1-.5-.5v-3a.5.5 0 0 1 .5-.5zM9 20v-6H7v6h2z" id="a"/></defs><use fill="#000" fill-rule="nonzero" transform="rotate(-180 8 11)" xlink:href="#a"/></svg>