<svg width="18" height="20" viewBox="0 0 18 20" xmlns="http://www.w3.org/2000/svg" xmlns:xlink="http://www.w3.org/1999/xlink"><defs><path d="M9.344.795l8.237 8.238a.5.5 0 0 1 0 .707l-.882.882a.5.5 0 0 1-.707 0L7.755 2.384a.5.5 0 0 1 0-.707l.881-.882a.5.5 0 0 1 .708 0zm0 4.495l8.237 8.237a.5.5 0 0 1 0 .707l-.882.882a.5.5 0 0 1-.707 0L7.755 6.88a.5.5 0 0 1 0-.708l.881-.881a.5.5 0 0 1 .708 0zM6.409 3.042a.5.5 0 0 1 .707 0l.882.882a.5.5 0 0 1 0 .707l-5.99 5.991a.5.5 0 0 1-.707 0L.419 9.74a.5.5 0 0 1 0-.707l5.99-5.99zm0 4.495a.5.5 0 0 1 .707 0l.882.882a.5.5 0 0 1 0 .707l-5.99 5.99a.5.5 0 0 1-.707 0l-.882-.882a.5.5 0 0 1 0-.707l5.99-5.99zm0 4.494a.5.5 0 0 1 .707 0l.882.882a.5.5 0 0 1 0 .707l-5.99 5.99a.5.5 0 0 1-.707 0l-.882-.881a.5.5 0 0 1 0-.707l5.99-5.991zm2.935-2.247l8.237 8.238a.5.5 0 0 1 0 .707l-.882.882a.5.5 0 0 1-.707 0l-8.237-8.238a.5.5 0 0 1 0-.707l.881-.882a.5.5 0 0 1 .708 0z" id="a"/></defs><use fill="#000" xlink:href="#a" fill-rule="evenodd"/></svg>